<svg xmlns="http://www.w3.org/2000/svg" xmlns:xlink="http://www.w3.org/1999/xlink" width="40" zoomAndPan="magnify" viewBox="0 0 30 30.000001" height="40" preserveAspectRatio="xMidYMid meet" version="1.0"><defs><clipPath id="a8e1245250"><path d="M 23 3 L 28.84375 3 L 28.84375 6 L 23 6 Z M 23 3 " clip-rule="nonzero"/></clipPath><clipPath id="4d2d85e25e"><path d="M 1.265625 3 L 8 3 L 8 7 L 1.265625 7 Z M 1.265625 3 " clip-rule="nonzero"/></clipPath><clipPath id="78c5780f07"><path d="M 1.265625 0 L 28.84375 0 L 28.84375 29.03125 L 1.265625 29.03125 Z M 1.265625 0 " clip-rule="nonzero"/></clipPath></defs><g clip-path="url(#a8e1245250)"><path fill="#ffffff" d="M 28.132812 4.664062 C 28.089844 5.0625 27.855469 5.503906 27.542969 5.941406 C 27.527344 5.761719 27.476562 5.566406 27.375 5.375 C 27.199219 5.042969 26.917969 4.820312 26.542969 4.707031 C 25.582031 4.433594 24.261719 5.03125 23.699219 5.316406 C 23.488281 4.988281 23.257812 4.675781 23 4.382812 C 24.230469 3.6875 26.761719 2.621094 27.824219 3.753906 C 28.070312 4.015625 28.164062 4.308594 28.125 4.664062 Z M 28.132812 4.664062 " fill-opacity="1" fill-rule="nonzero"/></g><g clip-path="url(#4d2d85e25e)"><path fill="#ffffff" d="M 7.648438 4.464844 C 7.535156 4.578125 7.421875 4.6875 7.316406 4.792969 C 6.929688 4.652344 3.925781 3.582031 2.90625 5.148438 C 2.609375 5.609375 2.625 6.121094 2.800781 6.617188 C 2.394531 6.144531 2.078125 5.621094 2.007812 5.105469 C 1.9375 4.613281 2.101562 4.171875 2.5 3.761719 C 3.539062 2.695312 6.339844 3.796875 7.648438 4.464844 Z M 7.648438 4.464844 " fill-opacity="1" fill-rule="nonzero"/></g><path fill="#ffffff" d="M 25.324219 18.203125 C 23.28125 15.851562 19.5 14.1875 15.1875 13.808594 C 10.453125 13.386719 6.160156 14.625 3.785156 16.785156 C 3.808594 15.308594 4.035156 11.65625 5.621094 8.386719 C 5.640625 8.34375 5.664062 8.292969 5.691406 8.25 C 7.441406 4.738281 10.257812 2.714844 14.078125 2.234375 C 14.117188 2.230469 14.167969 2.222656 14.210938 2.21875 C 14.9375 2.128906 15.71875 2.097656 16.542969 2.128906 C 19.011719 2.222656 20.992188 3.089844 22.429688 4.714844 C 25.300781 7.945312 25.632812 13.640625 25.324219 18.203125 Z M 25.324219 18.203125 " fill-opacity="1" fill-rule="nonzero"/><path fill="#a14142" d="M 18.855469 22.5625 C 18.355469 23.292969 17.609375 23.875 16.734375 24.25 C 16.734375 24.25 16.75 24.113281 16.691406 23.914062 C 16.554688 23.496094 16.078125 22.804688 14.378906 22.5625 C 12.554688 22.300781 11.679688 23.035156 11.339844 23.464844 L 11.335938 23.464844 C 11.230469 23.597656 11.171875 23.703125 11.160156 23.734375 C 11.140625 23.71875 11.121094 23.707031 11.105469 23.691406 C 10.371094 23.179688 9.808594 22.507812 9.484375 21.742188 C 9.171875 20.980469 9.867188 20.183594 10.753906 20.265625 L 17.929688 20.90625 C 18.816406 20.980469 19.332031 21.882812 18.855469 22.574219 Z M 18.855469 22.5625 " fill-opacity="1" fill-rule="nonzero"/><path fill="#f5b0b5" d="M 25.730469 19.292969 C 25.6875 19.226562 25.636719 19.144531 25.585938 19.070312 C 25.492188 18.9375 25.398438 18.808594 25.292969 18.679688 C 23.429688 16.332031 19.65625 14.53125 15.160156 14.132812 C 10.359375 13.703125 6.027344 14.984375 3.789062 17.207031 C 3.703125 17.296875 3.621094 17.375 3.539062 17.46875 C 2.78125 18.304688 2.3125 19.257812 2.203125 20.296875 C 1.976562 22.332031 3.195312 24.292969 5.316406 25.804688 C 5.402344 25.875 5.488281 25.9375 5.582031 25.992188 C 7.621094 27.363281 10.429688 28.339844 13.589844 28.621094 C 16.828125 28.90625 19.847656 28.421875 22.164062 27.382812 L 22.179688 27.382812 C 22.28125 27.332031 22.375 27.28125 22.476562 27.238281 C 24.792969 26.117188 26.332031 24.441406 26.542969 22.457031 C 26.664062 21.359375 26.371094 20.289062 25.726562 19.289062 Z M 9.476562 21.726562 C 9.164062 20.96875 9.859375 20.171875 10.746094 20.253906 L 17.921875 20.894531 C 18.8125 20.96875 19.324219 21.871094 18.847656 22.5625 C 18.347656 23.292969 17.605469 23.875 16.730469 24.25 C 15.886719 24.617188 14.90625 24.777344 13.886719 24.6875 C 12.964844 24.605469 12.121094 24.332031 11.417969 23.902344 C 11.324219 23.851562 11.246094 23.796875 11.160156 23.738281 L 11.148438 23.738281 C 11.128906 23.71875 11.109375 23.707031 11.089844 23.691406 C 10.359375 23.179688 9.796875 22.507812 9.472656 21.742188 Z M 9.476562 21.726562 " fill-opacity="1" fill-rule="nonzero"/><path fill="#c9676c" d="M 16.691406 23.90625 C 16.667969 23.917969 16.636719 23.933594 16.605469 23.945312 C 15.785156 24.292969 14.859375 24.4375 13.921875 24.355469 C 12.972656 24.269531 12.078125 23.957031 11.339844 23.460938 C 11.679688 23.03125 12.554688 22.296875 14.378906 22.554688 C 16.078125 22.804688 16.554688 23.492188 16.691406 23.90625 Z M 16.691406 23.90625 " fill-opacity="1" fill-rule="nonzero"/><path fill="#f5b0b5" d="M 22.03125 1.351562 C 21.710938 1.214844 20.972656 1.78125 20.398438 2.378906 C 20.929688 2.632812 21.417969 2.945312 21.875 3.308594 C 22.179688 2.34375 22.269531 1.453125 22.03125 1.347656 Z M 22.03125 1.351562 " fill-opacity="1" fill-rule="nonzero"/><path fill="#f5b0b5" d="M 8.621094 1.183594 C 8.234375 1.40625 8.445312 2.574219 8.785156 3.539062 C 9.378906 3.113281 10.023438 2.757812 10.703125 2.464844 C 10.027344 1.730469 9.046875 0.933594 8.621094 1.183594 Z M 8.621094 1.183594 " fill-opacity="1" fill-rule="nonzero"/><path fill="#f5b0b5" d="M 6.839844 5.332031 C 6.152344 6.132812 5.546875 7.054688 5.039062 8.101562 C 5.003906 8.1875 4.972656 8.269531 4.925781 8.355469 C 4.160156 7.691406 2.90625 6.34375 3.453125 5.511719 C 4.035156 4.613281 5.894531 5.011719 6.839844 5.332031 Z M 6.839844 5.332031 " fill-opacity="1" fill-rule="nonzero"/><path fill="#f5b0b5" d="M 26.15625 7.421875 C 25.871094 7.675781 25.585938 7.90625 25.324219 8.105469 C 25.238281 8.167969 25.164062 8.230469 25.085938 8.289062 C 24.8125 7.429688 24.46875 6.617188 24.042969 5.871094 C 24.636719 5.574219 25.707031 5.148438 26.355469 5.332031 C 26.558594 5.386719 26.695312 5.5 26.789062 5.671875 C 27.101562 6.265625 26.636719 6.929688 26.15625 7.414062 Z M 26.15625 7.421875 " fill-opacity="1" fill-rule="nonzero"/><path fill="#231f20" d="M 11.367188 23.980469 L 11.148438 23.738281 L 10.847656 23.613281 L 11.136719 23.71875 L 10.933594 23.496094 L 11.136719 23.71875 L 11.460938 23.839844 Z M 11.367188 23.980469 " fill-opacity="1" fill-rule="nonzero"/><path fill="#312728" d="M 11.660156 7.964844 C 10.691406 7.738281 9.617188 8.585938 9.253906 9.855469 C 8.890625 11.125 9.382812 12.339844 10.351562 12.570312 C 11.324219 12.792969 12.398438 11.949219 12.761719 10.679688 C 13.121094 9.40625 12.628906 8.195312 11.660156 7.964844 Z M 11.660156 7.964844 " fill-opacity="1" fill-rule="nonzero"/><path fill="#312728" d="M 18.523438 8.175781 C 17.480469 8.242188 16.710938 9.320312 16.804688 10.589844 C 16.90625 11.859375 17.828125 12.832031 18.875 12.761719 C 19.917969 12.695312 20.6875 11.617188 20.59375 10.347656 C 20.492188 9.078125 19.566406 8.105469 18.523438 8.175781 Z M 18.523438 8.175781 " fill-opacity="1" fill-rule="nonzero"/><path fill="#312728" d="M 20.023438 17.644531 C 19.523438 18.054688 19.304688 18.578125 19.542969 18.820312 C 19.785156 19.0625 20.386719 18.921875 20.886719 18.511719 C 21.386719 18.097656 21.597656 17.574219 21.363281 17.332031 C 21.125 17.089844 20.523438 17.226562 20.023438 17.644531 Z M 20.023438 17.644531 " fill-opacity="1" fill-rule="nonzero"/><path fill="#312728" d="M 9.371094 18.390625 C 9.652344 18.199219 9.554688 17.644531 9.140625 17.144531 C 8.734375 16.660156 8.171875 16.417969 7.890625 16.609375 C 7.601562 16.796875 7.710938 17.359375 8.117188 17.851562 C 8.523438 18.339844 9.085938 18.585938 9.371094 18.390625 Z M 9.371094 18.390625 " fill-opacity="1" fill-rule="nonzero"/><g clip-path="url(#78c5780f07)"><path fill="#312728" d="M 28.308594 3.300781 C 26.746094 1.644531 23.425781 3.382812 22.539062 3.890625 C 22.5 3.847656 22.457031 3.796875 22.414062 3.761719 C 22.710938 2.933594 23.21875 1.164062 22.300781 0.753906 C 21.460938 0.367188 20.273438 1.527344 19.761719 2.097656 C 18.792969 1.730469 17.734375 1.515625 16.566406 1.476562 C 15.710938 1.445312 14.898438 1.476562 14.136719 1.570312 C 13.140625 1.6875 12.214844 1.898438 11.355469 2.203125 C 10.871094 1.644531 9.339844 0.0117188 8.296875 0.609375 C 7.308594 1.179688 7.921875 3.121094 8.242188 3.941406 C 8.222656 3.960938 8.195312 3.980469 8.171875 3.996094 C 7.539062 3.660156 3.628906 1.664062 2.03125 3.300781 C 1.488281 3.859375 1.265625 4.496094 1.359375 5.1875 C 1.601562 6.960938 3.964844 8.554688 4.644531 8.984375 C 3.019531 12.9375 3.132812 17.003906 3.152344 17.453125 C 2.4375 18.292969 1.996094 19.230469 1.882812 20.253906 C 1.746094 21.527344 2.132812 22.792969 2.976562 23.964844 C 4.101562 25.289062 5.410156 26.296875 5.425781 26.265625 C 6.035156 26.679688 6.703125 27.039062 7.414062 27.367188 C 9.234375 28.195312 11.339844 28.738281 13.574219 28.9375 C 14.191406 28.988281 14.816406 29.019531 15.421875 29.019531 C 17.128906 29.019531 18.773438 28.808594 20.269531 28.394531 C 20.78125 28.242188 21.21875 28.097656 21.597656 27.960938 C 21.75 27.902344 21.898438 27.847656 22.042969 27.785156 C 22.042969 27.785156 22.042969 27.792969 22.042969 27.792969 C 22.394531 27.660156 22.886719 27.40625 22.875 27.398438 C 25.242188 26.191406 26.65625 24.460938 26.875 22.480469 C 27 21.285156 26.683594 20.109375 25.925781 18.988281 C 26.183594 15.894531 26.175781 12.164062 25.289062 8.941406 C 25.398438 8.855469 25.539062 8.761719 25.699219 8.636719 C 25.789062 8.578125 26.21875 8.289062 26.652344 7.84375 C 27.621094 6.984375 28.65625 5.820312 28.78125 4.726562 C 28.84375 4.179688 28.6875 3.699219 28.3125 3.292969 Z M 22.039062 1.351562 C 22.273438 1.457031 22.1875 2.347656 21.878906 3.3125 C 21.425781 2.945312 20.929688 2.632812 20.40625 2.386719 C 20.980469 1.789062 21.71875 1.222656 22.039062 1.359375 Z M 8.628906 1.183594 C 9.054688 0.933594 10.039062 1.730469 10.710938 2.464844 C 10.023438 2.757812 9.382812 3.113281 8.789062 3.539062 C 8.453125 2.566406 8.242188 1.402344 8.628906 1.183594 Z M 2.90625 5.164062 C 2.609375 5.621094 2.625 6.132812 2.800781 6.632812 C 2.394531 6.160156 2.078125 5.636719 2.007812 5.117188 C 1.9375 4.625 2.101562 4.183594 2.5 3.773438 C 3.539062 2.710938 6.339844 3.8125 7.648438 4.476562 C 7.535156 4.589844 7.421875 4.695312 7.316406 4.808594 C 6.929688 4.664062 3.925781 3.59375 2.90625 5.167969 Z M 3.457031 5.511719 C 4.039062 4.613281 5.902344 5.011719 6.847656 5.332031 C 6.160156 6.132812 5.550781 7.054688 5.046875 8.101562 C 5.007812 8.1875 4.976562 8.269531 4.933594 8.355469 C 4.164062 7.691406 2.914062 6.34375 3.457031 5.511719 Z M 26.230469 22.433594 C 26.03125 24.316406 24.542969 25.96875 22.054688 27.082031 C 19.710938 28.140625 16.71875 28.570312 13.628906 28.296875 C 10.527344 28.023438 7.660156 27.050781 5.558594 25.574219 C 5.546875 25.5625 5.535156 25.550781 5.515625 25.539062 C 3.390625 24.027344 2.332031 22.175781 2.53125 20.328125 C 2.945312 16.511719 8.601562 13.878906 15.140625 14.457031 C 19.613281 14.855469 23.476562 16.65625 25.261719 19.167969 C 25.261719 19.195312 25.257812 19.21875 25.257812 19.25 L 25.324219 19.25 L 25.324219 19.261719 C 26.039062 20.285156 26.34375 21.347656 26.226562 22.433594 Z M 25.335938 18.210938 C 23.292969 15.859375 19.511719 14.195312 15.199219 13.816406 C 10.464844 13.390625 6.171875 14.632812 3.796875 16.792969 C 3.820312 15.316406 4.046875 11.65625 5.632812 8.394531 C 5.652344 8.351562 5.675781 8.300781 5.707031 8.257812 C 5.707031 8.257812 5.707031 8.257812 5.707031 8.25 C 9.742188 8.167969 13.105469 5.648438 14.085938 2.25 L 14.089844 2.25 C 14.128906 2.242188 14.179688 2.234375 14.222656 2.230469 C 14.949219 2.144531 15.730469 2.113281 16.554688 2.144531 C 19.023438 2.234375 21.003906 3.101562 22.445312 4.726562 C 25.3125 7.957031 25.644531 13.652344 25.335938 18.21875 Z M 26.167969 7.421875 C 25.882812 7.675781 25.601562 7.90625 25.335938 8.105469 C 25.25 8.167969 25.175781 8.230469 25.101562 8.289062 C 24.824219 7.429688 24.480469 6.617188 24.054688 5.871094 C 24.648438 5.574219 25.71875 5.148438 26.371094 5.332031 C 26.570312 5.386719 26.707031 5.5 26.800781 5.671875 C 27.113281 6.265625 26.652344 6.929688 26.167969 7.414062 Z M 28.144531 4.664062 C 28.101562 5.0625 27.871094 5.503906 27.558594 5.941406 C 27.539062 5.761719 27.488281 5.566406 27.386719 5.375 C 27.214844 5.042969 26.933594 4.820312 26.558594 4.707031 C 25.59375 4.433594 24.273438 5.03125 23.710938 5.316406 C 23.5 4.988281 23.269531 4.675781 23.011719 4.382812 C 24.25 3.6875 26.777344 2.621094 27.839844 3.753906 C 28.082031 4.015625 28.175781 4.308594 28.136719 4.664062 Z M 28.144531 4.664062 " fill-opacity="1" fill-rule="nonzero"/></g><path fill="#312728" d="M 17.953125 20.570312 L 10.765625 19.929688 C 10.203125 19.878906 9.660156 20.117188 9.339844 20.550781 C 9.046875 20.945312 8.992188 21.417969 9.171875 21.851562 C 9.527344 22.699219 10.152344 23.441406 10.964844 23.996094 C 11.792969 24.566406 12.796875 24.910156 13.859375 25.007812 C 14.046875 25.023438 14.246094 25.035156 14.441406 25.035156 C 15.285156 25.035156 16.117188 24.867188 16.859375 24.546875 C 17.792969 24.148438 18.582031 23.527344 19.117188 22.75 C 19.394531 22.351562 19.429688 21.859375 19.222656 21.421875 C 18.992188 20.949219 18.503906 20.621094 17.953125 20.578125 Z M 18.582031 22.382812 C 18.125 23.03125 17.472656 23.558594 16.6875 23.914062 C 16.660156 23.925781 16.628906 23.9375 16.597656 23.949219 C 15.78125 24.300781 14.855469 24.441406 13.917969 24.363281 C 12.964844 24.273438 12.074219 23.964844 11.335938 23.464844 L 11.328125 23.464844 C 10.617188 22.972656 10.078125 22.339844 9.773438 21.609375 C 9.648438 21.304688 9.777344 21.054688 9.867188 20.9375 C 10.035156 20.707031 10.316406 20.570312 10.621094 20.570312 C 10.929688 20.570312 10.679688 20.570312 10.710938 20.578125 L 17.890625 21.21875 C 18.21875 21.242188 18.5 21.421875 18.628906 21.691406 C 18.738281 21.921875 18.71875 22.164062 18.582031 22.375 Z M 18.582031 22.382812 " fill-opacity="1" fill-rule="nonzero"/><path fill="#f7f5f6" d="M 12.433594 9.347656 C 12.433594 9.570312 12.347656 9.761719 12.171875 9.921875 C 12 10.082031 11.789062 10.160156 11.542969 10.160156 C 11.292969 10.160156 11.082031 10.082031 10.910156 9.921875 C 10.734375 9.761719 10.648438 9.570312 10.648438 9.347656 C 10.648438 9.121094 10.734375 8.929688 10.910156 8.769531 C 11.082031 8.609375 11.292969 8.53125 11.542969 8.53125 C 11.789062 8.53125 12 8.609375 12.171875 8.769531 C 12.347656 8.929688 12.433594 9.121094 12.433594 9.347656 Z M 12.433594 9.347656 " fill-opacity="1" fill-rule="nonzero"/><path fill="#f7f5f6" d="M 20.0625 9.546875 C 20.0625 9.769531 19.972656 9.960938 19.800781 10.121094 C 19.625 10.28125 19.414062 10.359375 19.167969 10.359375 C 18.921875 10.359375 18.710938 10.28125 18.535156 10.121094 C 18.359375 9.960938 18.273438 9.769531 18.273438 9.546875 C 18.273438 9.320312 18.359375 9.128906 18.535156 8.96875 C 18.710938 8.808594 18.921875 8.730469 19.167969 8.730469 C 19.414062 8.730469 19.625 8.808594 19.800781 8.96875 C 19.972656 9.128906 20.0625 9.320312 20.0625 9.546875 Z M 20.0625 9.546875 " fill-opacity="1" fill-rule="nonzero"/></svg>